<svg xmlns="http://www.w3.org/2000/svg" width="228.319" height="112.612" viewBox="0 0 228.319 112.612">
  <path id="Union_3" data-name="Union 3" d="M-276.418,450.61-325,422.626l.07-.122H-325v-55.97h.317l-.317-.548L-276.416,338l.183.315.183-.315L-237,360.493v21.542l-39.234-22.6-30.066,17.32v35.1l30.066,17.318,20.614-11.874L-274.4,406.48V384.937L-237,406.48v21.636l-39.051,22.495-.183-.317-.183.317h0Zm127.537-20.731-10.353-15.806-1.5,12.646h.01v.2a1.78,1.78,0,0,0,.46,1.18,1.4,1.4,0,0,0,1.1.54h.64V429h-21.52v-.36h.64a1.4,1.4,0,0,0,1.1-.54,1.794,1.794,0,0,0,.459-1.122l-1.559-13.116-7.16,11.5-.4.7a12.942,12.942,0,0,0-.8,1.74,5.763,5.763,0,0,0-.4,2.08h-.36l-10.354-15.807-1.5,12.647h.01v.2a1.781,1.781,0,0,0,.461,1.18,1.4,1.4,0,0,0,1.1.54h.64V429h-21.68v-.4h.36a1.9,1.9,0,0,0,1.42-.66,1.613,1.613,0,0,0,.1-1.86h.03l-1.756-4.32h-9l-1.84,4.32h.048a1.82,1.82,0,0,0-.16,1.36,1.6,1.6,0,0,0,.7.86,1.9,1.9,0,0,0,.98.3h.36v.4h-8.761v-.4h.36a3.722,3.722,0,0,0,1.9-.581,3.8,3.8,0,0,0,1.264-1.284l9.436-21.015a5.5,5.5,0,0,0,.5-1.021q.3-.74.68-1.62t.661-1.679a5.512,5.512,0,0,0,.32-1.28h.36l12.4,26.413a3.949,3.949,0,0,0,1.384,1.486,3.728,3.728,0,0,0,1.9.581h.079a3.023,3.023,0,0,0,1.921-.66,2.632,2.632,0,0,0,.949-1.569l3.451-25.932h.36l12.93,19.357,12.109-19.357h.36l3.519,25.64h.041a2.9,2.9,0,0,0,1.021,1.86,2.941,2.941,0,0,0,1.9.66h1.08a3.021,3.021,0,0,0,1.92-.66,2.632,2.632,0,0,0,.951-1.576l3.449-25.925h.36l12.93,19.357,12.109-19.357h.36l3.52,25.64h.041a2.9,2.9,0,0,0,1.02,1.86,2.942,2.942,0,0,0,1.9.66h.121a3.727,3.727,0,0,0,1.9-.581,3.8,3.8,0,0,0,1.261-1.28l9.439-21.02a5.515,5.515,0,0,0,.5-1.021q.3-.74.68-1.62t.66-1.679a5.522,5.522,0,0,0,.32-1.28h.36l12.393,26.409a3.942,3.942,0,0,0,1.387,1.49,3.725,3.725,0,0,0,1.9.581h.32v.4h-13.96v-.4h.36a1.9,1.9,0,0,0,1.42-.66,1.613,1.613,0,0,0,.1-1.86h.031l-1.756-4.32h-9l-1.84,4.32h.048a1.82,1.82,0,0,0-.16,1.36,1.6,1.6,0,0,0,.7.86,1.9,1.9,0,0,0,.98.3h.36v.4h-21v-.36h.64a1.4,1.4,0,0,0,1.1-.54,1.788,1.788,0,0,0,.459-1.127l-1.559-13.11-7.16,11.5-.4.7a12.722,12.722,0,0,0-.8,1.74,5.764,5.764,0,0,0-.4,2.08ZM-130.48,429ZM-170.121,429ZM-99.24,428.759ZM-208.44,428.759Zm97.207-8.84-3.649-8.976-3.823,8.976Zm-109.2,0-3.648-8.975-3.822,8.975Z" transform="translate(325 -338)" fill="#1b6d9b"/>
</svg>
